<?xml version="1.0" encoding="UTF-8"?> <svg xmlns="http://www.w3.org/2000/svg" width="95" height="86" viewBox="0 0 95 86"><g fill="none" fill-rule="evenodd" stroke="#FFF" stroke-width="3"><path d="M79.142 30.323L56.035 30.323M79.142 22.78L56.035 22.78M9.821 30.323L32.928 30.323M9.821 22.78L32.928 22.78" transform="translate(3.365 2.862)"></path><g><path d="M51.993 58.605c-4.22.005-7.637 3.36-7.631 7.494v5.707" transform="translate(3.365 2.862) translate(0 .054)"></path><path d="M40.6.144H.003v58.462l36.799-.001c4.187.01 7.572 3.344 7.561 7.445v.098L44.29 7.623c.075-4.199 3.579-7.56 7.867-7.549L88.769.067v45.339" transform="translate(3.365 2.862) translate(0 .054)"></path><path d="M0.004 58.606L0.004 71.807 52.153 71.807" transform="translate(3.365 2.862) translate(0 .054)"></path><path stroke-linecap="round" stroke-linejoin="round" d="M64.119 64.71L69.414 69.896 86.423 51.194" transform="translate(3.365 2.862) translate(0 .054)"></path><path stroke-linecap="round" stroke-linejoin="round" d="M86.617 62.305c1.086 8.26-4.871 15.818-13.305 16.88-8.434 1.064-16.15-4.77-17.236-13.03-1.086-8.26 4.872-15.817 13.305-16.88 2.587-.327 5.215-.004 7.639.937" transform="translate(3.365 2.862) translate(0 .054)"></path></g></g></svg> 