<?xml version="1.0" encoding="UTF-8"?> <svg xmlns="http://www.w3.org/2000/svg" xmlns:xlink="http://www.w3.org/1999/xlink" width="63" height="63" viewBox="0 0 63 63"><defs><path id="mf44srwena" d="M0 0L63 0 63 63 0 63z"></path></defs><g fill="none" fill-rule="evenodd"><mask id="rzgdnpq4eb" fill="#fff"><use xlink:href="#mf44srwena"></use></mask><path fill="#162f65" d="M20.871 42.17h16.258V19.83H20.87v22.34zM39 43.085v-24.17c0-.505-.419-.915-.936-.915H19.936c-.517 0-.936.41-.936.915v24.17c0 .505.419.915.936.915h18.128c.517 0 .936-.41.936-.915zM23.935 46c-1.247 0-1.247 2 0 2h11.13c1.247 0 1.247-2 0-2h-11.13z" mask="url(#rzgdnpq4eb)"></path><path fill="#162f65" d="M50.377 32.635l-2.831-1.98c-.314-.22-.731-.22-1.045 0l-2.831 1.98v-13.11c1.048.378 2.177.586 3.353.586 1.176 0 2.305-.208 3.354-.586v13.11zM14.94 61.154c-1.705 0-3.093-1.37-3.093-3.055 0-1.684 1.388-3.054 3.093-3.054h28.04v6.109H14.94zM57 10.056c0-2.194-.689-4.278-1.99-6.028-.712-.955-2.178.152-1.468 1.106 1.063 1.429 1.625 3.13 1.625 4.922 0 4.526-3.653 8.21-8.144 8.21-4.49 0-8.144-3.684-8.144-8.21 0-4.527 3.654-8.21 8.144-8.21 1.155 0 2.273.24 3.325.715 1.081.489 1.831-1.195.75-1.684C49.809.295 48.438 0 47.023 0c-5.025 0-9.192 3.764-9.876 8.641-2.205.006-4.45-.01-6.63-.024-5.32-.036-10.822-.073-16.208.18-2.31.018-4.183 2.378-4.192 4.603l-.101 30.317c.002 1.159 1.835 1.213 1.832-.004.005-.694.102-30.278.102-30.278.04-1.311 1.053-2.729 2.426-2.792 5.343-.253 10.826-.216 16.129-.18 2.152.015 4.37.03 6.552.024.146 3.452 2.024 6.458 4.78 8.155V34.4c0 .732.842 1.176 1.439.758l2.83-1.979v19.887c0 .074-.058.134-.131.134H14.94c-1.177 0-2.26.414-3.108 1.102-.001-1.648.004-3.293.015-5.01.008-1.158-1.824-1.229-1.832-.012-.021 3.029-.021 5.834 0 8.827v.005C10.022 60.808 12.229 63 14.94 63h32.082c.506 0 .917-.413.917-.923s-.41-.923-.917-.923h-2.21v-6.11h1.162c1.083 0 1.965-.887 1.965-1.979V33.178l2.83 1.98c.6.419 1.44-.028 1.44-.759V18.642c2.87-1.767 4.79-4.955 4.79-8.586z" mask="url(#rzgdnpq4eb)"></path><path fill="#162f65" d="M49.094 10.471c-.228.21-.332.514-.278.81l.205 1.13-1.07-.532c-.142-.07-.296-.106-.451-.106-.155 0-.31.035-.45.106l-1.07.533.204-1.13c.054-.298-.05-.6-.278-.81l-.868-.802 1.198-.165c.316-.043.588-.23.729-.501l.535-1.027.535 1.027c.14.27.413.458.728.501l1.198.165-.867.801zm.451-2.709l-1.177-2.26c-.349-.67-1.388-.67-1.736 0l-1.178 2.26-2.633.363c-.779.107-1.1 1.041-.536 1.561l1.906 1.76-.45 2.485c-.133.735.71 1.31 1.404.966l2.355-1.173 2.355 1.173c.697.347 1.537-.231 1.404-.966l-.45-2.485 1.906-1.76c.564-.52.243-1.454-.536-1.562l-2.634-.362zM2.452 28.874l3.18 1.99c.999.626 1.955-1.085.924-1.73l-3.18-1.992c-1.034-.647-1.957 1.085-.924 1.732M5 36c0-.552-.376-1-.84-1H.814c-1.087 0-1.087 2 0 2h3.344c.465 0 .841-.448.841-1M5.623 40.142l-3.185 1.99c-1.01.631-.093 2.366.925 1.73l3.185-1.99c1.034-.646.11-2.376-.925-1.73M59.556 42.133l-3.18-1.99c-1.034-.647-1.957 1.084-.924 1.73l3.18 1.992c.999.625 1.955-1.086.924-1.732M62.18 35h-3.36c-1.093 0-1.093 2 0 2h3.36c1.093 0 1.093-2 0-2M56.912 31c.157 0 .316-.043.46-.134l3.177-1.992c1.032-.647.11-2.379-.923-1.732l-3.176 1.992c-.824.517-.426 1.866.462 1.866" mask="url(#rzgdnpq4eb)"></path></g></svg> 