<?xml version="1.0" encoding="UTF-8"?> <svg xmlns="http://www.w3.org/2000/svg" xmlns:xlink="http://www.w3.org/1999/xlink" width="58" height="64" viewBox="0 0 58 64"><defs><path id="x3tgrs5pwa" d="M0 64L58 64 58 0 0 0z"></path></defs><g fill="none" fill-rule="evenodd"><path fill="#162f65" d="M0 0L0 46 22 46 22 44 2 44 2 2 24.586 2 32 9.414 32 16 34 16 34 8.586 25.414 0z"></path><path fill="#162f65" d="M28 16L30 16 30 12 28 12zM22 42L4 42 4 4 22 4 22 6 6 6 6 40 22 40zM24 18v46h34V26.586L49.413 18H24zm2 2h22.585L56 27.414V62H26V20zM48 16h-2V7c0-.552-.448-1-1-1h-9V4h9c1.654 0 3 1.346 3 3v9zM22 60h-9c-1.654 0-3-1.346-3-3v-9h2v9c0 .552.448 1 1 1h9v2z"></path><mask id="39i63ukiqb" fill="#fff"><use xlink:href="#x3tgrs5pwa"></use></mask><path fill="#162f65" d="M30 26L44 26 44 24 30 24zM30 30L44 30 44 28 30 28zM30 34L52 34 52 32 30 32zM30 38L52 38 52 36 30 36zM30 42L52 42 52 40 30 40zM30 46L52 46 52 44 30 44zM30 50L52 50 52 48 30 48zM30 54L52 54 52 52 30 52zM30 58L52 58 52 56 30 56zM33 10L24 10 24 1 26 1 26 8 33 8zM57 28L48 28 48 19 50 19 50 26 57 26z" mask="url(#39i63ukiqb)"></path></g></svg> 