<?xml version="1.0" encoding="UTF-8"?> <svg xmlns="http://www.w3.org/2000/svg" xmlns:xlink="http://www.w3.org/1999/xlink" width="60" height="60" viewBox="0 0 60 60"><defs><path id="ulf0puljka" d="M0 60L60 60 60 0 0 0z"></path></defs><g fill="none" fill-rule="evenodd"><path fill="#162f65" d="M56.25 28.125L20.625 28.125 20.625 26.25 54.375 26.25 54.375 9.375 20.625 9.375 20.625 7.5 56.25 7.5zM11.25 1.875c-2.068 0-3.75 1.682-3.75 3.75s1.682 3.75 3.75 3.75S15 7.693 15 5.625s-1.682-3.75-3.75-3.75m0 9.375c-3.102 0-5.625-2.523-5.625-5.625S8.148 0 11.25 0s5.625 2.523 5.625 5.625-2.523 5.625-5.625 5.625"></path><path fill="#162f65" d="M60 35.625H16.875V18.75h15V15H7.5c-3.102 0-5.625 2.523-5.625 5.625V33.75h3.75v-7.5H7.5v9.375H0v-15c0-4.135 3.365-7.5 7.5-7.5h26.25v7.5h-15V33.75h39.375V5.625H18.75V3.75H60v31.875z"></path><mask id="8rurqyeoab" fill="#fff"><use xlink:href="#ulf0puljka"></use></mask><path fill="#162f65" d="M20.625 31.875L56.25 31.875 56.25 30 20.625 30zM57.188 60H2.812C1.288 60 0 58.282 0 56.25v-2.419l7.035-4.02.93 1.628-6.09 3.48v1.331c0 1.148.66 1.875.938 1.875h54.374c.279 0 .938-.727.938-1.875v-1.331l-6.09-3.48.93-1.628L60 53.831v2.419c0 2.032-1.288 3.75-2.813 3.75" mask="url(#8rurqyeoab)"></path><path fill="#162f65" d="M40.342 55.438L32.393 51.464 33.232 49.787 40.284 53.312 46.41 49.811 47.34 51.439zM19.658 55.438L12.66 51.439 13.59 49.811 19.716 53.312 26.768 49.787 27.607 51.464z" mask="url(#8rurqyeoab)"></path><path fill="#162f65" d="M10.313 41.25c-2.84 0-3.75 1.025-3.75 4.219 0 2.5 1.314 5.156 3.75 5.156 2.435 0 3.75-2.656 3.75-5.156 0-3.194-.912-4.219-3.75-4.219m0 11.25c-3.207 0-5.626-3.023-5.626-7.031 0-2.837.64-6.094 5.625-6.094 4.986 0 5.626 3.257 5.626 6.094 0 4.008-2.42 7.031-5.626 7.031M30 41.25c-2.839 0-3.75 1.025-3.75 4.219 0 2.5 1.314 5.156 3.75 5.156s3.75-2.656 3.75-5.156c0-3.194-.911-4.219-3.75-4.219m0 11.25c-3.206 0-5.625-3.023-5.625-7.031 0-2.837.64-6.094 5.625-6.094 4.986 0 5.625 3.257 5.625 6.094 0 4.008-2.419 7.031-5.625 7.031M49.688 41.25c-2.84 0-3.75 1.025-3.75 4.219 0 2.5 1.314 5.156 3.75 5.156 2.435 0 3.75-2.656 3.75-5.156 0-3.194-.912-4.219-3.75-4.219m0 11.25c-3.207 0-5.626-3.023-5.626-7.031 0-2.837.64-6.094 5.626-6.094 4.985 0 5.624 3.257 5.624 6.094 0 4.008-2.418 7.031-5.624 7.031M18.75 57.188L20.625 57.188 20.625 54.375 18.75 54.375zM39.375 57.188L41.25 57.188 41.25 54.375 39.375 54.375zM10.313 18.75L12.188 18.75 12.188 16.875 10.313 16.875zM10.313 22.5L12.188 22.5 12.188 20.625 10.313 20.625z" mask="url(#8rurqyeoab)"></path></g></svg> 