<?xml version="1.0" encoding="UTF-8"?> <svg xmlns="http://www.w3.org/2000/svg" width="80" height="87" viewBox="0 0 80 87"><g fill="none" fill-rule="evenodd" stroke="#FFF" stroke-linecap="round" stroke-linejoin="round" stroke-width="2.6"><path d="M21.958 82.36H7.746C3.823 82.36.64 79.177.64 75.254V7.746" transform="translate(1.75 1.865)"></path><path d="M68.148.64H7.746C3.823.64.64 3.823.64 7.746c0 3.922 3.183 7.106 7.106 7.106h56.849c1.965 0 3.553 1.592 3.553 3.553v12.436M7.753 7.746L64.602 7.746M47.541 78.096L32.618 82.36l4.264-14.923 25.507-25.508c2.942-2.942 7.718-2.942 10.66 0 2.941 2.942 2.941 7.718 0 10.66L47.54 78.095zM59.189 45.129L69.848 55.789M36.882 67.437L47.541 78.096" transform="translate(1.75 1.865)"></path></g></svg> 