<?xml version="1.0" encoding="UTF-8"?> <svg xmlns="http://www.w3.org/2000/svg" xmlns:xlink="http://www.w3.org/1999/xlink" width="64" height="64" viewBox="0 0 64 64"><defs><path id="kngyg5n00a" d="M0 0L11 0 11 8 0 8z"></path><path id="2atnv8e1dc" d="M0 64L64 64 64 0 0 0z"></path></defs><g fill="none" fill-rule="evenodd"><path fill="#162f65" d="M54 10L45 10 45 1 47 1 47 8 54 8z"></path><path fill="#162f65" d="M9 0L9 34 11 34 11 2 45.586 2 53 9.414 53 34 55 34 55 8.586 46.414 0zM9 46L9 64 55 64 55 50 53 50 53 62 11 62 11 46zM10 44L58 44 58 42 10 42zM10 38L58 38 58 36 10 36z"></path><path fill="#162f65" d="M57 44h7v-8h-7v8zm2-1.999h3V38h-3v4.001z"></path><g transform="translate(0 36)"><mask id="igtdrmr6bb" fill="#fff"><use xlink:href="#kngyg5n00a"></use></mask><path fill="#162f65" d="M6.277 6H9V2H6.277L2.944 4l3.333 2zM10 8H6c-.181 0-.36-.049-.515-.143l-5-3C.184 4.677 0 4.352 0 4s.184-.677.485-.857l5-3C5.64.049 5.819 0 6 0h4c.552 0 1 .447 1 1v6c0 .553-.448 1-1 1z" mask="url(#igtdrmr6bb)"></path><path fill="#162f65" d="M6.277 6H9V2H6.277L2.944 4l3.333 2zM10 8H6c-.181 0-.36-.049-.515-.143l-5-3C.184 4.677 0 4.352 0 4s.184-.677.485-.857l5-3C5.64.049 5.819 0 6 0h4c.552 0 1 .447 1 1v6c0 .553-.448 1-1 1z" mask="url(#igtdrmr6bb)"></path></g><mask id="m0h877w0pd" fill="#fff"><use xlink:href="#2atnv8e1dc"></use></mask><path fill="#162f65" d="M21 43L23 43 23 37 21 37zM55 48L39 48 39 46 53 46 53 43 55 43zM35 54c-1.416 0-2.162-.747-2.708-1.293-.489-.49-.729-.707-1.292-.707-.563 0-.803.217-1.292.707C29.162 53.253 28.416 54 27 54c-1.414 0-2.161-.747-2.707-1.293-.491-.49-.731-.707-1.293-.707-.562 0-.802.217-1.293.707C21.161 53.253 20.413 54 19 54c-1.413 0-2.161-.747-2.707-1.293-.491-.49-.731-.707-1.293-.707v-2c1.413 0 2.161.747 2.707 1.293.491.49.731.707 1.293.707.562 0 .802-.217 1.293-.707C20.839 50.747 21.587 50 23 50c1.414 0 2.161.747 2.707 1.293.491.49.731.707 1.293.707.563 0 .803-.217 1.292-.707C28.838 50.747 29.584 50 31 50c1.416 0 2.162.747 2.708 1.293.489.49.729.707 1.292.707v2zM15 10L17 10 17 8 15 8zM19 10L21 10 21 8 19 8zM23 10L25 10 25 8 23 8zM15 16L49 16 49 14 15 14zM15 20L49 20 49 18 15 18zM15 24L49 24 49 22 15 22zM15 28L49 28 49 26 15 26zM15 32L31 32 31 30 15 30zM15 58L35 58 35 56 15 56z" mask="url(#m0h877w0pd)"></path></g></svg> 