<?xml version="1.0" encoding="UTF-8"?> <svg xmlns="http://www.w3.org/2000/svg" xmlns:xlink="http://www.w3.org/1999/xlink" width="60" height="64" viewBox="0 0 60 64"><defs><path id="uzz2zedaca" d="M0 64L60 64 60 0 0 0z"></path></defs><g fill="none" fill-rule="evenodd"><path fill="#162f65" d="M43 64H5c-.553 0-1-.447-1-1V11c0-.553.447-1 1-1h5v2H6v50h36V18h2v45c0 .553-.447 1-1 1"></path><mask id="48vnfdexob" fill="#fff"><use xlink:href="#uzz2zedaca"></use></mask><path fill="#162f65" d="M0 52L2 52 2 8 0 8z" mask="url(#48vnfdexob)"></path><path fill="#162f65" d="M13.328 14H40c3.308 0 6-2.691 6-6s-2.692-6-6-6H13.286C14.95 3.467 16 5.613 16 8c0 2.797-1.193 4.73-2.672 6M40 16H9c-.52 0-.954-.399-.997-.918-.042-.519.32-.982.833-1.068C9.043 13.978 14 13.059 14 8c0-3.309-2.692-6-6-6-3.309 0-6 2.691-6 6H0c0-4.411 3.59-8 8-8h32c4.411 0 8 3.589 8 8s-3.589 8-8 8M10 28L38 28 38 26 10 26zM10 32L38 32 38 30 10 30zM10 36L38 36 38 34 10 34zM10 40L38 40 38 38 10 38zM10 44L38 44 38 42 10 42zM10 48L38 48 38 46 10 46zM10 52L38 52 38 50 10 50zM23 22L25 22 25 20 23 20zM27 22L29 22 29 20 27 20zM19 22L21 22 21 20 19 20zM28 58L38 58 38 56 28 56z" mask="url(#48vnfdexob)"></path><path fill="#162f65" d="M5 16L9 16 9 14 5 14zM53 52h-2c-1.654 0-3-1.346-3-3V32h2v17c0 .552.448 1 1 1h2v2zM53 14L59 14 59 12 53 12zM53 56L59 56 59 54 53 54z" mask="url(#48vnfdexob)"></path><path fill="#162f65" d="M54 6.277V60c0 1.102.897 2 2 2s2-.898 2-2V6.277l-2-3.334-2 3.334zM56 64c-2.206 0-4-1.794-4-4V6c0-.182.049-.36.143-.515l3-5c.361-.602 1.353-.602 1.714 0l3 5c.094.155.143.333.143.515v54c0 2.206-1.794 4-4 4z" mask="url(#48vnfdexob)"></path></g></svg> 