<?xml version="1.0" encoding="UTF-8"?> <svg xmlns="http://www.w3.org/2000/svg" xmlns:xlink="http://www.w3.org/1999/xlink" width="64" height="64" viewBox="0 0 64 64"><defs><path id="aer7tprfoa" d="M0.016 0L47.984 0 47.984 18.18 0.016 18.18z"></path><path id="olm4d5saic" d="M0 64L64 64 64 0 0 0z"></path></defs><g fill="none" fill-rule="evenodd"><g transform="translate(8)"><mask id="twjlksikub" fill="#fff"><use xlink:href="#aer7tprfoa"></use></mask><path fill="#162f65" d="M1.984 18.18l-1.968-.36C1.99 6.996 11.405 0 24 0c12.596 0 22.01 6.995 23.984 17.82l-1.968.36C44.224 8.35 35.582 2 24 2 12.419 2 3.777 8.35 1.984 18.18" mask="url(#twjlksikub)"></path></g><path fill="#162f65" d="M20.566 47.901C14.32 44.894 10.222 39.784 8.04 32.28l1.92-.559c2.043 7.025 5.69 11.594 11.473 14.378l-.867 1.803zM43.446 47.895l-.892-1.79c5.665-2.822 9.529-7.661 11.486-14.384l1.92.558c-2.12 7.281-6.33 12.535-12.514 15.616"></path><mask id="hw660a1shd" fill="#fff"><use xlink:href="#olm4d5saic"></use></mask><path fill="#162f65" d="M52 28L54 28 54 22 52 22zM21 29H4c-2.206 0-4-1.794-4-4s1.794-4 4-4h21v2H4c-1.103 0-2 .897-2 2s.897 2 2 2h17v2z" mask="url(#hw660a1shd)"></path><path fill="#162f65" d="M58 29H41v-2h16.723l3.333-2-3.333-2H41v-2h17c.181 0 .359.049.515.143l5 3c.301.18.485.505.485.857s-.184.677-.485.857l-5 3c-.156.094-.334.143-.515.143M10 28L12 28 12 22 10 22zM6 28L8 28 8 22 6 22z" mask="url(#hw660a1shd)"></path><path fill="#162f65" d="M39 44h-2l.042-2.287L40 31.854V22c0-.552-.449-1-1-1-.551 0-1 .448-1 1h-2v-1c0-.552-.449-1-1-1-.551 0-1 .448-1 1h-2v-2c0-.552-.449-1-1-1-.551 0-1 .448-1 1v2h-2c0-.552-.449-1-1-1-.551 0-1 .448-1 1v9h-2v-9c0-1.654 1.346-3 3-3 .39 0 .763.075 1.105.211C28.453 16.938 29.619 16 31 16s2.547.938 2.895 2.211C34.237 18.075 34.61 18 35 18c1.061 0 1.995.554 2.528 1.387.435-.246.937-.387 1.472-.387 1.654 0 3 1.346 3 3l-.042 10.287L39 42.146V44z" mask="url(#hw660a1shd)"></path><path fill="#162f65" d="M28 23L30 23 30 21 28 21zM32 23L34 23 34 21 32 21zM36 23L38 23 38 22 36 22zM27 44L25 44 25 40.333 22.105 36.447 20 32.236 20 27 25 27 25 29 22 29 22 31.764 23.854 35.472 27 39.667zM28 49L30 49 30 47 28 47z" mask="url(#hw660a1shd)"></path><path fill="#162f65" d="M40 64h-2V45H26v19h-2V45c0-1.103.897-2 2-2h12c1.103 0 2 .897 2 2v19zM42 64L44 64 44 62 42 62zM42 60L44 60 44 58 42 58zM42 56L44 56 44 54 42 54zM20 64L22 64 22 62 20 62zM20 60L22 60 22 58 20 58zM20 56L22 56 22 54 20 54z" mask="url(#hw660a1shd)"></path></g></svg> 