<?xml version="1.0" encoding="UTF-8"?> <svg xmlns="http://www.w3.org/2000/svg" width="81" height="88" viewBox="0 0 81 88"><g fill="none" fill-rule="evenodd" stroke="#FFF" stroke-width="2.5"><path d="M65.6 45.556H52.844c-2.219 1.822-7.06 5.466-14.577 5.466s-12.359-3.644-14.578-5.466H10.933S2.021 68.173.29 72.213c-.195.454-.29.931-.29 1.425v4.718C0 80.367 1.633 82 3.644 82H72.89c2.012 0 3.644-1.633 3.644-3.644v-4.718c0-.494-.094-.971-.29-1.425-1.73-4.04-10.643-26.657-10.643-26.657zM23.689 12.756L52.844 12.756M23.689 20.044L52.844 20.044M23.689 27.333L38.267 27.333M67.422 32.8h3.645c3.02 0 3.644 2.447 3.644 5.467 0 3.02-.625 5.466-3.644 5.466h-1.823M9.111 32.8H5.467c-3.02 0-3.645 2.447-3.645 5.467 0 3.02.625 5.466 3.645 5.466h1.822M12.756 34.622L12.756 0 63.778 0 63.778 34.622M9.111 38.267L67.422 38.267" transform="translate(2.5 2.365)"></path><g><path d="M11.156 1.133L18.444 1.133M22.089 1.133L29.378 1.133M33.022 1.133L40.311 1.133M9.333 13.889L31.2 13.889M5.689 6.6L12.978 6.6M.222 1.133L7.511 1.133M16.622 6.6L23.911 6.6M27.556 6.6L34.844 6.6" transform="translate(2.5 2.365) translate(18 59)"></path></g></g></svg> 