<?xml version="1.0" encoding="UTF-8"?> <svg xmlns="http://www.w3.org/2000/svg" xmlns:xlink="http://www.w3.org/1999/xlink" width="52" height="63" viewBox="0 0 52 63"><defs><path id="c0oxmr35ra" d="M0 0L52 0 52 63 0 63z"></path></defs><g fill="none" fill-rule="evenodd"><mask id="hrpuhwb5qb" fill="#fff"><use xlink:href="#c0oxmr35ra"></use></mask><path fill="#162f65" d="M2.08 6.3h47.84V2.1H2.08v4.2zM4.16 42h43.68V8.4H4.16V42zM0 0v8.4h2.08v35.7h21.886l-12.33 17.234c-.336.47-.231 1.127.235 1.467.465.34 1.116.234 1.452-.236L24.96 46.297V61.95c0 .58.466 1.05 1.04 1.05.574 0 1.04-.47 1.04-1.05V46.297l11.637 16.268c.336.47.987.576 1.452.236.466-.34.571-.997.234-1.467L28.034 44.1H49.92V8.4H52V0H0z" mask="url(#hrpuhwb5qb)"></path><path fill="#162f65" d="M43.694 29.31c-.387-.413-1.002-.413-1.39 0l-7.3 8.031-2.296-2.525c-.39-.43-1.024-.43-1.415 0-.39.43-.39 1.127 0 1.557l3.003 3.305c.39.43 1.024.43 1.415 0l8.008-8.811c.384-.438.373-1.135-.025-1.558M16.485 21.5v-6.216c3.224.468 5.756 2.997 6.225 6.216h-6.225zm-2.102 8.336c-4.024-.574-6.82-4.297-6.245-8.316.463-3.233 3.007-5.774 6.245-6.236v7.266c0 .58.47 1.05 1.051 1.05h7.276c-.575 4.018-4.304 6.81-8.327 6.236zM25.949 21.5h-1.114c-.497-4.383-3.96-7.842-8.35-8.338V12.05c0-.58-.47-1.05-1.051-1.05-.58 0-1.051.47-1.051 1.05v1.112c-5.192.596-8.917 5.283-8.32 10.468.548 4.758 4.575 8.355 9.371 8.37 4.816-.007 8.861-3.62 9.401-8.4h1.114c.58 0 1.051-.47 1.051-1.05 0-.58-.47-1.05-1.051-1.05zM6 40L8 40 8 38 6 38zM10 40L26 40 26 38 10 38zM6 36L8 36 8 34 6 34zM10 36L26 36 26 34 10 34zM29 19L31 19 31 17 29 17zM33 19L45 19 45 17 33 17zM29 15L31 15 31 13 29 13zM33 15L45 15 45 13 33 13zM29 27L31 27 31 25 29 25zM33 27L45 27 45 25 33 25zM29 23L31 23 31 21 29 21zM33 23L45 23 45 21 33 21z" mask="url(#hrpuhwb5qb)"></path></g></svg> 