<?xml version="1.0" encoding="UTF-8"?> <svg xmlns="http://www.w3.org/2000/svg" width="64" height="53" viewBox="0 0 64 53"><g fill="#162f65" fill-rule="evenodd"><path d="M7.571 45.429h47.953V2.524H7.57v42.905zm49.215 2.523H6.31c-.698 0-1.262-.565-1.262-1.262V1.262C5.048.565 5.612 0 6.31 0h50.476c.698 0 1.262.565 1.262 1.262V46.69c0 .697-.564 1.262-1.262 1.262z"></path><path d="M30.286 40.381L32.81 40.381 32.81 7.571 30.286 7.571zM10.095 27.762L27.762 27.762 27.762 25.238 10.095 25.238zM10.095 32.81L27.762 32.81 27.762 30.286 10.095 30.286zM10.095 37.857L27.762 37.857 27.762 35.333 10.095 35.333zM35.333 27.762L53 27.762 53 25.238 35.333 25.238zM35.333 15.143L53 15.143 53 12.619 35.333 12.619zM35.333 32.81L53 32.81 53 30.286 35.333 30.286zM35.333 37.857L53 37.857 53 35.333 35.333 35.333zM35.333 10.095L53 10.095 53 7.571 35.333 7.571zM42.905 21.452L45.429 21.452 45.429 18.929 42.905 18.929zM37.857 21.452L40.381 21.452 40.381 18.929 37.857 18.929zM47.952 21.452L50.476 21.452 50.476 18.929 47.952 18.929z"></path><path d="M61.833 53H36.595c-.335 0-.656-.133-.892-.37l-4.155-4.155-4.156 4.155c-.236.237-.556.37-.892.37H1.262C.564 53 0 52.435 0 51.738V5.048h2.524v45.428h23.454l4.677-4.678c.494-.493 1.291-.493 1.785 0l4.678 4.678H60.57V5.048h2.524v46.69c0 .697-.564 1.262-1.262 1.262"></path><path d="M12.619 20.19h12.62V10.095h-12.62V20.19zm-2.524 2.524h17.667V7.571H10.095v15.143z"></path></g></svg> 